<svg width="31" height="23" viewBox="0 0 31 23" fill="none" xmlns="http://www.w3.org/2000/svg">
<path d="M11.9998 12.4996C11.9998 12.7963 11.9118 13.0863 11.747 13.333C11.5822 13.5797 11.3479 13.7719 11.0738 13.8855C10.7997 13.999 10.4981 14.0287 10.2072 13.9708C9.91619 13.9129 9.64891 13.7701 9.43914 13.5603C9.22936 13.3505 9.0865 13.0833 9.02862 12.7923C8.97074 12.5013 9.00045 12.1997 9.11398 11.9256C9.22751 11.6515 9.41977 11.4173 9.66644 11.2524C9.91311 11.0876 10.2031 10.9996 10.4998 10.9996C10.8976 10.9996 11.2792 11.1577 11.5605 11.439C11.8418 11.7203 11.9998 12.1018 11.9998 12.4996ZM19.4998 10.9996C19.2031 10.9996 18.9131 11.0876 18.6664 11.2524C18.4198 11.4173 18.2275 11.6515 18.114 11.9256C18.0004 12.1997 17.9707 12.5013 18.0286 12.7923C18.0865 13.0833 18.2294 13.3505 18.4391 13.5603C18.6489 13.7701 18.9162 13.9129 19.2072 13.9708C19.4981 14.0287 19.7997 13.999 20.0738 13.8855C20.3479 13.7719 20.5822 13.5797 20.747 13.333C20.9118 13.0863 20.9998 12.7963 20.9998 12.4996C20.9998 12.1018 20.8418 11.7203 20.5605 11.439C20.2792 11.1577 19.8976 10.9996 19.4998 10.9996ZM28.806 19.1121L20.431 22.8259C20.1792 22.9379 19.9072 22.9971 19.6316 23.0001C19.356 23.003 19.0827 22.9496 18.8286 22.8431C18.5744 22.7365 18.3447 22.5791 18.1536 22.3806C17.9625 22.182 17.814 21.9465 17.7173 21.6884L16.7035 18.9384C16.1435 18.9759 15.5756 18.9951 14.9998 18.9959C14.424 18.9967 13.856 18.9776 13.296 18.9384L12.2823 21.6884C12.1854 21.9463 12.0368 22.1818 11.8457 22.3802C11.6546 22.5787 11.4249 22.736 11.1708 22.8425C10.9167 22.949 10.6435 23.0025 10.368 22.9997C10.0924 22.9968 9.8204 22.9377 9.56855 22.8259L1.19355 19.1121C0.761279 18.9231 0.410158 18.5868 0.202751 18.1631C-0.00465558 17.7393 -0.0548735 17.2557 0.0610461 16.7984L3.7498 2.24965C3.84715 1.87128 4.05272 1.52952 4.34134 1.26621C4.62997 1.00289 4.98911 0.829461 5.3748 0.767147L9.8823 0.0258972C10.3792 -0.0540252 10.8881 0.0537257 11.3099 0.328194C11.7318 0.602662 12.0365 1.02423 12.1648 1.5109L12.5723 3.1159C13.3665 3.0384 14.1756 2.99965 14.9998 2.99965C15.824 2.99965 16.6323 3.0384 17.4248 3.1159L17.8323 1.5109C17.9603 1.02408 18.265 0.602339 18.6869 0.327827C19.1088 0.0533151 19.6179 -0.0543159 20.1148 0.0258972L24.6248 0.767147C25.0105 0.829461 25.3696 1.00289 25.6582 1.26621C25.9469 1.52952 26.1524 1.87128 26.2498 2.24965L29.941 16.7971C30.0571 17.2549 30.0067 17.7391 29.7988 18.1631C29.5909 18.5872 29.239 18.9235 28.806 19.1121ZM27.9998 17.2846L24.3085 2.74965C24.3085 2.74965 24.3085 2.74965 24.2985 2.74965L19.791 1.99965C19.7878 1.99778 19.7842 1.9968 19.7804 1.9968C19.7767 1.9968 19.773 1.99778 19.7698 1.99965L19.416 3.39215C20.041 3.50965 20.666 3.64965 21.2698 3.81965C21.5078 3.88032 21.7152 4.02648 21.8524 4.23026C21.9895 4.43404 22.0469 4.68117 22.0135 4.92453C21.9801 5.1679 21.8584 5.39046 21.6714 5.54978C21.4844 5.70911 21.2454 5.79405 20.9998 5.7884C20.9085 5.78814 20.8177 5.77553 20.7298 5.7509C18.8622 5.24413 16.9349 4.99144 14.9998 4.99965C13.0648 4.99103 11.1374 5.2433 9.2698 5.74965C9.14222 5.78909 9.00803 5.80258 8.87515 5.78932C8.74227 5.77606 8.61339 5.73632 8.49612 5.67245C8.37885 5.60858 8.27556 5.52186 8.19234 5.41742C8.10912 5.31298 8.04767 5.19293 8.0116 5.06435C7.97553 4.93578 7.96558 4.80128 7.98234 4.6688C7.99909 4.53631 8.04221 4.40853 8.10915 4.29298C8.17609 4.17743 8.2655 4.07646 8.37209 3.99602C8.47869 3.91559 8.60031 3.85732 8.7298 3.82465C9.3323 3.65465 9.9523 3.51465 10.5823 3.39715L10.2285 1.99965C10.2285 1.99965 10.2285 1.99965 10.2135 1.99965L5.70105 2.7409C5.69736 2.73989 5.69348 2.73989 5.6898 2.7409L1.9998 17.2909L10.3748 20.9996C10.379 21.0019 10.3837 21.0031 10.3885 21.0031C10.3933 21.0031 10.3981 21.0019 10.4023 20.9996L11.2498 18.7146C10.4007 18.5848 9.56001 18.4044 8.7323 18.1746C8.48576 18.0959 8.27937 17.9246 8.15651 17.6968C8.03365 17.469 8.0039 17.2024 8.0735 16.9532C8.1431 16.7039 8.30665 16.4913 8.52974 16.3601C8.75284 16.2289 9.01811 16.1893 9.2698 16.2496C11.1373 16.7566 13.0647 17.0089 14.9998 16.9996C16.9349 17.0089 18.8623 16.7566 20.7298 16.2496C20.9852 16.178 21.2587 16.2108 21.4899 16.3408C21.7212 16.4708 21.8913 16.6873 21.9629 16.9428C22.0345 17.1982 22.0017 17.4716 21.8717 17.7029C21.7418 17.9341 21.5252 18.1043 21.2698 18.1759C20.4412 18.4054 19.5997 18.5853 18.7498 18.7146L19.5935 20.9996C19.5976 21.0018 19.6021 21.003 19.6067 21.003C19.6113 21.003 19.6158 21.0018 19.6198 20.9996L27.9998 17.2846Z" fill="#FFBB00"/>
</svg>
