<svg width="24" height="27" viewBox="0 0 24 27" fill="none" xmlns="http://www.w3.org/2000/svg">
<path d="M22 0H2C1.46957 0 0.960859 0.210714 0.585786 0.585786C0.210714 0.960859 0 1.46957 0 2V20C0 20.5304 0.210714 21.0391 0.585786 21.4142C0.960859 21.7893 1.46957 22 2 22H4V26C3.99993 26.1901 4.05403 26.3762 4.15597 26.5367C4.25791 26.6971 4.40346 26.8252 4.57557 26.9058C4.74767 26.9865 4.93921 27.0165 5.12773 26.9922C5.31625 26.9679 5.49395 26.8904 5.64 26.7687L11.3625 22H16.6375C17.1057 22.0002 17.5591 21.836 17.9188 21.5362L23.28 17.0675C23.5057 16.8803 23.6873 16.6455 23.8118 16.3799C23.9363 16.1143 24.0005 15.8245 24 15.5312V2C24 1.46957 23.7893 0.960859 23.4142 0.585786C23.0391 0.210714 22.5304 0 22 0ZM22 15.5312L16.6375 20H11.3625C10.8943 19.9998 10.4409 20.164 10.0813 20.4638L6 23.865V21C6 20.7348 5.89464 20.4804 5.70711 20.2929C5.51957 20.1054 5.26522 20 5 20H2V2H22V15.5312ZM16 13V7C16 6.73478 16.1054 6.48043 16.2929 6.29289C16.4804 6.10536 16.7348 6 17 6C17.2652 6 17.5196 6.10536 17.7071 6.29289C17.8946 6.48043 18 6.73478 18 7V13C18 13.2652 17.8946 13.5196 17.7071 13.7071C17.5196 13.8946 17.2652 14 17 14C16.7348 14 16.4804 13.8946 16.2929 13.7071C16.1054 13.5196 16 13.2652 16 13ZM10 13V7C10 6.73478 10.1054 6.48043 10.2929 6.29289C10.4804 6.10536 10.7348 6 11 6C11.2652 6 11.5196 6.10536 11.7071 6.29289C11.8946 6.48043 12 6.73478 12 7V13C12 13.2652 11.8946 13.5196 11.7071 13.7071C11.5196 13.8946 11.2652 14 11 14C10.7348 14 10.4804 13.8946 10.2929 13.7071C10.1054 13.5196 10 13.2652 10 13Z" fill="#FFBB00"/>
</svg>
