<svg width="28" height="24" viewBox="0 0 28 24" fill="none" xmlns="http://www.w3.org/2000/svg">
<path d="M27.9208 3.618C27.8424 3.43526 27.7095 3.27906 27.539 3.16915C27.3684 3.05923 27.168 3.00055 26.9628 3.0005H23.0181C22.4665 2.09573 21.6816 1.34395 20.7396 0.818261C19.7976 0.29257 18.7305 0.0108555 17.6422 0.000504387C16.8313 -0.00975088 16.0265 0.136472 15.2752 0.430568C14.5238 0.724665 13.841 1.16069 13.267 1.713C12.6762 2.27203 12.2073 2.93931 11.8879 3.67561C11.5684 4.41191 11.4048 5.20237 11.4068 6.0005V6.76175C6.18771 5.43425 1.91886 1.3405 1.87349 1.29675C1.73436 1.16141 1.55801 1.06721 1.36522 1.02526C1.17243 0.983315 0.971221 0.995361 0.785292 1.05998C0.599362 1.1246 0.436453 1.23911 0.31575 1.39001C0.195047 1.54092 0.121577 1.72194 0.10399 1.91175C-0.454732 7.8855 1.34459 11.883 2.95594 14.1843C3.74162 15.3219 4.69742 16.3412 5.79233 17.2093C3.818 19.4005 0.70938 20.5518 0.675676 20.5643C0.529337 20.6171 0.397276 20.7012 0.289361 20.8101C0.181446 20.9191 0.100467 21.0502 0.0524746 21.1936C0.00448216 21.337 -0.00928248 21.489 0.0122088 21.6383C0.0337 21.7875 0.0898914 21.9301 0.176585 22.0555C0.27381 22.1955 0.662712 22.6868 1.61293 23.1455C2.78741 23.713 4.33913 24.0005 6.22141 24.0005C15.3826 24.0005 23.0375 17.198 23.8192 8.4455L27.6966 4.708C27.8416 4.56808 27.9403 4.38983 27.9802 4.19581C28.0201 4.00179 27.9994 3.80071 27.9208 3.618ZM22.0873 7.29425C21.9095 7.46612 21.8026 7.69449 21.7866 7.93675C21.2589 15.823 14.4246 22.0005 6.22141 22.0005C4.85248 22.0005 3.888 21.8255 3.21131 21.6155C4.7034 20.8343 6.78403 19.4905 8.12185 17.5555C8.20037 17.4417 8.25387 17.3136 8.27904 17.1791C8.30422 17.0446 8.30053 16.9066 8.26822 16.7735C8.2359 16.6405 8.17565 16.5152 8.09116 16.4055C8.00668 16.2957 7.89976 16.2038 7.77702 16.1355C7.71609 16.1018 2.0848 12.843 2.07313 4.1355C4.14727 5.7605 7.93906 8.28175 12.2714 8.98425C12.4199 9.00839 12.5721 9.00107 12.7173 8.96278C12.8626 8.92449 12.9974 8.85617 13.1125 8.76255C13.2276 8.66893 13.3202 8.55227 13.3838 8.42068C13.4474 8.28908 13.4806 8.1457 13.4809 8.0005V6.0005C13.4797 5.46707 13.5892 4.93879 13.803 4.44677C14.0167 3.95474 14.3303 3.50891 14.7254 3.1355C15.1041 2.76963 15.5551 2.48067 16.0516 2.28573C16.5481 2.09078 17.0802 1.99379 17.6162 2.0005C19.2574 2.0205 20.791 2.9855 21.4327 4.40175C21.5135 4.57981 21.6465 4.73128 21.8153 4.83762C21.984 4.94395 22.1813 5.00056 22.3829 5.0005H24.457L22.0873 7.29425Z" fill="#FFBB00"/>
</svg>
