<svg width="100" height="100" viewBox="0 0 100 100" fill="none" xmlns="http://www.w3.org/2000/svg">
<path d="M97.318 32.06C96.3124 30.7836 95.0758 29.7615 93.6904 29.0615C92.305 28.3615 90.8025 27.9997 89.2826 28H64.2835V20C64.2835 14.6957 62.4022 9.60859 59.0534 5.85787C55.7047 2.10714 51.1628 1.02551e-06 46.4269 1.02551e-06C45.7635 -0.000531002 45.113 0.205956 44.5484 0.596308C43.9839 0.98666 43.5275 1.54544 43.2306 2.21L26.3652 40H7.14261C5.24827 40 3.43152 40.8429 2.09202 42.3431C0.752522 43.8434 0 45.8783 0 48V92C0 94.1217 0.752522 96.1566 2.09202 97.6569C3.43152 99.1571 5.24827 100 7.14261 100H83.9256C86.5358 100.001 89.0566 98.9347 91.0145 97.0014C92.9725 95.068 94.2329 92.4006 94.5592 89.5L99.9162 41.5C100.106 39.8101 99.9725 38.0943 99.5246 36.4667C99.0766 34.839 98.3244 33.3369 97.318 32.06ZM7.14261 48H24.9991V92H7.14261V48ZM92.8271 40.5L87.4702 88.5C87.3614 89.4669 86.9412 90.356 86.2886 91.0005C85.6359 91.6449 84.7957 92.0003 83.9256 92H32.1417V44.945L48.5296 8.23C50.9584 8.77448 53.1438 10.2448 54.7139 12.3907C56.2839 14.5366 57.1416 17.2256 57.1409 20V32C57.1409 33.0609 57.5171 34.0783 58.1869 34.8284C58.8566 35.5786 59.765 36 60.7122 36H89.2826C89.7894 35.9998 90.2904 36.1204 90.7524 36.3538C91.2143 36.5872 91.6266 36.9281 91.9619 37.3537C92.2972 37.7794 92.5477 38.2801 92.6969 38.8225C92.8461 39.365 92.8905 39.9368 92.8271 40.5Z" fill="#606060"/>
</svg>
