<svg width="100" height="100" viewBox="0 0 100 100" fill="none" xmlns="http://www.w3.org/2000/svg">
<path d="M39.8851 76.9686C39.6901 77.7436 34.8155 95.9997 8.00309 95.9997C6.94233 95.9997 5.92501 95.5783 5.17493 94.8281C4.42486 94.0779 4.00347 93.0604 4.00347 91.9995C4.00347 65.1828 22.2567 60.3075 23.0317 60.1125C24.0613 59.8552 25.1509 60.0176 26.0608 60.5638C26.9708 61.11 27.6265 61.9954 27.8837 63.0252C28.1409 64.0549 27.9786 65.1447 27.4325 66.0548C26.8863 66.9649 26.0011 67.6207 24.9715 67.878C24.5215 68.003 13.7625 71.1482 12.1927 87.8092C28.8511 86.2391 32.0008 75.4985 32.1308 74.9984C32.396 73.97 33.0588 73.089 33.9734 72.5494C34.888 72.0097 35.9795 71.8555 37.0078 72.1208C38.0361 72.386 38.9169 73.0489 39.4565 73.9637C39.9961 74.8784 40.1502 75.9701 39.8851 76.9986V76.9686ZM86.3806 43.2664L83.9959 45.6516V74.8184C84.0018 75.8731 83.798 76.9184 83.3963 77.8936C82.9946 78.8688 82.4031 79.7543 81.6561 80.4988L64.4977 97.6499C63.7578 98.3952 62.8776 98.9866 61.908 99.39C60.9383 99.7933 59.8984 100.001 58.8482 100C57.9815 99.9998 57.1206 99.8596 56.2985 99.585C54.8871 99.1181 53.6344 98.2656 52.682 97.124C51.7296 95.9823 51.1155 94.597 50.909 93.1246L48.2243 73.8784L26.1214 51.772L6.8882 49.0868C5.41405 48.88 4.02684 48.2659 2.88261 47.3136C1.73838 46.3613 0.882529 45.1086 0.411333 43.6963C-0.0598628 42.2841 -0.12771 40.7683 0.215424 39.3196C0.558558 37.8709 1.29906 36.5467 2.35363 35.496L19.502 18.3349C20.2463 17.5878 21.1317 16.9961 22.1068 16.5944C23.0818 16.1926 24.1269 15.9888 25.1815 15.9947H54.3437L56.7285 13.6096C70.0672 0.273739 86.1406 -0.301297 92.4301 0.0737269C94.3802 0.192259 96.2196 1.02054 97.6011 2.40229C98.9827 3.78404 99.8108 5.62371 99.9293 7.5742C100.294 13.8496 99.7194 29.9256 86.3856 43.2664H86.3806ZM8.00309 41.1663L26.5763 43.7565L46.3444 23.9952H25.1815L8.00309 41.1663ZM33.6606 47.9967L51.9989 66.3379L80.7212 37.6111C84.5919 33.7658 87.5949 29.1364 89.5283 24.0341C91.4616 18.9317 92.2806 13.4745 91.9301 8.02923C86.4886 7.69173 81.0377 8.51941 75.9415 10.457C70.8453 12.3945 66.2212 15.3974 62.3779 19.2649L33.6606 47.9967ZM75.9966 53.6521L56.2335 73.4183L58.8333 91.9995L75.9966 74.8184V53.6521Z" fill="#606060"/>
</svg>
