<svg width="100" height="100" viewBox="0 0 100 100" fill="none" xmlns="http://www.w3.org/2000/svg">
<path d="M55.7692 75C55.7692 76.141 55.4309 77.2564 54.7969 78.2052C54.163 79.1539 53.262 79.8934 52.2078 80.3301C51.1536 80.7667 49.9936 80.881 48.8745 80.6584C47.7554 80.4358 46.7274 79.8863 45.9205 79.0794C45.1137 78.2726 44.5642 77.2446 44.3416 76.1255C44.119 75.0064 44.2333 73.8464 44.6699 72.7922C45.1066 71.738 45.8461 70.837 46.7948 70.203C47.7435 69.5691 48.859 69.2308 50 69.2308C51.5301 69.2308 52.9975 69.8386 54.0795 70.9205C55.1614 72.0025 55.7692 73.4699 55.7692 75ZM50 23.0769C39.3942 23.0769 30.7692 30.8413 30.7692 40.3846V42.3077C30.7692 43.3277 31.1745 44.306 31.8958 45.0273C32.6171 45.7486 33.5953 46.1538 34.6154 46.1538C35.6355 46.1538 36.6137 45.7486 37.335 45.0273C38.0563 44.306 38.4616 43.3277 38.4616 42.3077V40.3846C38.4616 35.0961 43.6394 30.7692 50 30.7692C56.3606 30.7692 61.5385 35.0961 61.5385 40.3846C61.5385 45.6731 56.3606 50 50 50C48.9799 50 48.0017 50.4052 47.2804 51.1265C46.5591 51.8478 46.1539 52.8261 46.1539 53.8461V57.6923C46.1539 58.7124 46.5591 59.6906 47.2804 60.4119C48.0017 61.1332 48.9799 61.5384 50 61.5384C51.0201 61.5384 51.9984 61.1332 52.7197 60.4119C53.4409 59.6906 53.8462 58.7124 53.8462 57.6923V57.3461C62.6154 55.7356 69.2308 48.7404 69.2308 40.3846C69.2308 30.8413 60.6058 23.0769 50 23.0769ZM100 50C100 59.8891 97.0676 69.556 91.5735 77.7785C86.0794 86.0009 78.2705 92.4096 69.1342 96.194C59.9979 99.9783 49.9445 100.968 40.2455 99.0392C30.5464 97.11 21.6373 92.3479 14.6447 85.3553C7.65206 78.3627 2.89002 69.4536 0.960758 59.7545C-0.968502 50.0555 0.0216642 40.0021 3.80605 30.8658C7.59043 21.7295 13.999 13.9206 22.2215 8.42652C30.444 2.93245 40.1109 0 50 0C63.2565 0.0139991 75.9661 5.28633 85.3399 14.6601C94.7137 24.0339 99.986 36.7435 100 50ZM92.3077 50C92.3077 41.6323 89.8264 33.4526 85.1776 26.4951C80.5287 19.5376 73.9212 14.115 66.1905 10.9128C58.4597 7.71062 49.9531 6.87279 41.7462 8.50524C33.5393 10.1377 26.0008 14.1671 20.084 20.0839C14.1671 26.0008 10.1377 33.5393 8.50526 41.7462C6.87281 49.9531 7.71064 58.4597 10.9128 66.1904C14.115 73.9212 19.5377 80.5287 26.4951 85.1775C33.4526 89.8264 41.6323 92.3077 50 92.3077C61.2168 92.2949 71.9705 87.8335 79.902 79.902C87.8335 71.9705 92.295 61.2168 92.3077 50Z" fill="#606060"/>
</svg>
