<svg width="100" height="100" viewBox="0 0 100 100" fill="none" xmlns="http://www.w3.org/2000/svg">
<path d="M98.8269 17.1726L82.8274 1.17311C82.4559 0.801215 82.0148 0.506188 81.5292 0.304897C81.0436 0.103606 80.5231 0 79.9975 0C79.4718 0 78.9513 0.103606 78.4658 0.304897C77.9802 0.506188 77.5391 0.801215 77.1676 1.17311L29.1691 49.1716C28.7978 49.5433 28.5033 49.9846 28.3026 50.4702C28.1018 50.9557 27.9987 51.4761 27.9991 52.0015V68.001C27.9991 69.0618 28.4205 70.0792 29.1707 70.8293C29.9208 71.5795 30.9382 72.0009 31.999 72.0009H47.9985C48.5239 72.0013 49.0443 71.8982 49.5298 71.6974C50.0154 71.4967 50.4567 71.2022 50.8284 70.8309L98.8269 22.8324C99.1988 22.461 99.4938 22.0198 99.6951 21.5342C99.8964 21.0487 100 20.5282 100 20.0025C100 19.4769 99.8964 18.9564 99.6951 18.4708C99.4938 17.9852 99.1988 17.5441 98.8269 17.1726ZM46.3435 64.0011H35.9989V53.6565L67.9979 21.6575L78.3425 32.0021L46.3435 64.0011ZM83.9974 26.3473L73.6527 16.0026L79.9975 9.65784L90.3422 20.0025L83.9974 26.3473ZM95.997 48.0016V92.0003C95.997 94.1219 95.1542 96.1567 93.6539 97.6569C92.1537 99.1572 90.1189 100 87.9972 100H7.99975C5.87808 100 3.84332 99.1572 2.34307 97.6569C0.842828 96.1567 0 94.1219 0 92.0003V12.0028C0 9.8811 0.842828 7.84634 2.34307 6.34609C3.84332 4.84585 5.87808 4.00302 7.99975 4.00302H51.9984C53.0592 4.00302 54.0766 4.42444 54.8267 5.17456C55.5768 5.92468 55.9982 6.94206 55.9982 8.00289C55.9982 9.06373 55.5768 10.0811 54.8267 10.8312C54.0766 11.5814 53.0592 12.0028 51.9984 12.0028H7.99975V92.0003H87.9972V48.0016C87.9972 46.9408 88.4186 45.9234 89.1688 45.1733C89.9189 44.4232 90.9363 44.0018 91.9971 44.0018C93.0579 44.0018 94.0753 44.4232 94.8255 45.1733C95.5756 45.9234 95.997 46.9408 95.997 48.0016Z" fill="#606060"/>
</svg>
