<svg width="100" height="100" viewBox="0 0 100 100" fill="none" xmlns="http://www.w3.org/2000/svg">
<path d="M6.66667 33.3333V70.8333C6.66667 71.9384 7.01786 72.9982 7.64298 73.7796C8.2681 74.561 9.11594 75 10 75H43.3333C44.2174 75 45.0652 75.439 45.6904 76.2204C46.3155 77.0018 46.6667 78.0616 46.6667 79.1667C46.6667 80.2717 46.3155 81.3315 45.6904 82.1129C45.0652 82.8943 44.2174 83.3333 43.3333 83.3333H36.6667V91.6667H43.3333C44.2174 91.6667 45.0652 92.1056 45.6904 92.887C46.3155 93.6684 46.6667 94.7283 46.6667 95.8333C46.6667 96.9384 46.3155 97.9982 45.6904 98.7796C45.0652 99.561 44.2174 100 43.3333 100H23.3333C22.4493 100 21.6014 99.561 20.9763 98.7796C20.3512 97.9982 20 96.9384 20 95.8333C20 94.7283 20.3512 93.6684 20.9763 92.887C21.6014 92.1056 22.4493 91.6667 23.3333 91.6667H30V83.3333H10C7.34784 83.3333 4.8043 82.0164 2.92893 79.6722C1.05357 77.328 0 74.1485 0 70.8333V33.3333C0 30.0181 1.05357 26.8387 2.92893 24.4945C4.8043 22.1503 7.34784 20.8333 10 20.8333H43.3333C44.2174 20.8333 45.0652 21.2723 45.6904 22.0537C46.3155 22.8351 46.6667 23.8949 46.6667 25C46.6667 26.1051 46.3155 27.1649 45.6904 27.9463C45.0652 28.7277 44.2174 29.1667 43.3333 29.1667H10C9.11594 29.1667 8.2681 29.6057 7.64298 30.3871C7.01786 31.1685 6.66667 32.2283 6.66667 33.3333ZM83.3333 16.6667H70C69.1159 16.6667 68.2681 17.1057 67.643 17.8871C67.0179 18.6685 66.6667 19.7283 66.6667 20.8333C66.6667 21.9384 67.0179 22.9982 67.643 23.7796C68.2681 24.561 69.1159 25 70 25H83.3333C84.2174 25 85.0652 24.561 85.6904 23.7796C86.3155 22.9982 86.6667 21.9384 86.6667 20.8333C86.6667 19.7283 86.3155 18.6685 85.6904 17.8871C85.0652 17.1057 84.2174 16.6667 83.3333 16.6667ZM83.3333 33.3333H70C69.1159 33.3333 68.2681 33.7723 67.643 34.5537C67.0179 35.3351 66.6667 36.3949 66.6667 37.5C66.6667 38.6051 67.0179 39.6649 67.643 40.4463C68.2681 41.2277 69.1159 41.6667 70 41.6667H83.3333C84.2174 41.6667 85.0652 41.2277 85.6904 40.4463C86.3155 39.6649 86.6667 38.6051 86.6667 37.5C86.6667 36.3949 86.3155 35.3351 85.6904 34.5537C85.0652 33.7723 84.2174 33.3333 83.3333 33.3333ZM100 8.33333V91.6667C100 93.8768 99.2976 95.9964 98.0474 97.5592C96.7971 99.122 95.1014 100 93.3333 100H60C58.2319 100 56.5362 99.122 55.286 97.5592C54.0357 95.9964 53.3333 93.8768 53.3333 91.6667V8.33333C53.3333 6.1232 54.0357 4.00358 55.286 2.44078C56.5362 0.877973 58.2319 0 60 0H93.3333C95.1014 0 96.7971 0.877973 98.0474 2.44078C99.2976 4.00358 100 6.1232 100 8.33333ZM93.3333 91.6667V8.33333H60V91.6667H93.3333ZM76.6667 70.8333C75.6778 70.8333 74.7111 71.1999 73.8888 71.8867C73.0666 72.5734 72.4257 73.5495 72.0473 74.6916C71.6688 75.8336 71.5698 77.0903 71.7627 78.3026C71.9557 79.515 72.4319 80.6287 73.1311 81.5027C73.8304 82.3768 74.7213 82.9721 75.6912 83.2132C76.6611 83.4544 77.6665 83.3306 78.5801 82.8576C79.4937 82.3845 80.2746 81.5835 80.824 80.5556C81.3734 79.5278 81.6667 78.3195 81.6667 77.0833C81.6667 75.4257 81.1399 73.836 80.2022 72.6639C79.2645 71.4918 77.9927 70.8333 76.6667 70.8333Z" fill="#606060"/>
</svg>
