<svg width="100" height="100" viewBox="0 0 100 100" fill="none" xmlns="http://www.w3.org/2000/svg">
<path d="M96.6667 92.3081H90V38.4646C90 36.4246 89.2976 34.4681 88.0474 33.0256C86.7971 31.5831 85.1014 30.7727 83.3333 30.7727H56.6667V7.69692C56.6674 6.30403 56.3404 4.93703 55.7204 3.74183C55.1005 2.54664 54.2109 1.5681 53.1466 0.910676C52.0823 0.253251 50.8832 -0.0583916 49.6774 0.00901335C48.4716 0.0764183 47.3042 0.52034 46.3 1.2934L12.9667 26.9267C12.0522 27.6306 11.3029 28.5845 10.7853 29.7034C10.2677 30.8223 9.99791 32.0716 10 33.3399V92.3081H3.33333C2.44928 92.3081 1.60143 92.7133 0.976311 93.4345C0.351189 94.1558 0 95.134 0 96.154C0 97.174 0.351189 98.1523 0.976311 98.8735C1.60143 99.5948 2.44928 100 3.33333 100H96.6667C97.5507 100 98.3986 99.5948 99.0237 98.8735C99.6488 98.1523 100 97.174 100 96.154C100 95.134 99.6488 94.1558 99.0237 93.4345C98.3986 92.7133 97.5507 92.3081 96.6667 92.3081ZM83.3333 38.4646V92.3081H56.6667V38.4646H83.3333ZM16.6667 33.3399L50 7.69692V92.3081H16.6667V33.3399ZM43.3333 46.1565V53.8485C43.3333 54.8685 42.9821 55.8467 42.357 56.568C41.7319 57.2892 40.8841 57.6944 40 57.6944C39.1159 57.6944 38.2681 57.2892 37.643 56.568C37.0179 55.8467 36.6667 54.8685 36.6667 53.8485V46.1565C36.6667 45.1365 37.0179 44.1583 37.643 43.437C38.2681 42.7158 39.1159 42.3106 40 42.3106C40.8841 42.3106 41.7319 42.7158 42.357 43.437C42.9821 44.1583 43.3333 45.1365 43.3333 46.1565ZM30 46.1565V53.8485C30 54.8685 29.6488 55.8467 29.0237 56.568C28.3986 57.2892 27.5507 57.6944 26.6667 57.6944C25.7826 57.6944 24.9348 57.2892 24.3096 56.568C23.6845 55.8467 23.3333 54.8685 23.3333 53.8485V46.1565C23.3333 45.1365 23.6845 44.1583 24.3096 43.437C24.9348 42.7158 25.7826 42.3106 26.6667 42.3106C27.5507 42.3106 28.3986 42.7158 29.0237 43.437C29.6488 44.1583 30 45.1365 30 46.1565ZM30 73.0783V80.7702C30 81.7902 29.6488 82.7684 29.0237 83.4897C28.3986 84.211 27.5507 84.6161 26.6667 84.6161C25.7826 84.6161 24.9348 84.211 24.3096 83.4897C23.6845 82.7684 23.3333 81.7902 23.3333 80.7702V73.0783C23.3333 72.0583 23.6845 71.08 24.3096 70.3588C24.9348 69.6375 25.7826 69.2323 26.6667 69.2323C27.5507 69.2323 28.3986 69.6375 29.0237 70.3588C29.6488 71.08 30 72.0583 30 73.0783ZM43.3333 73.0783V80.7702C43.3333 81.7902 42.9821 82.7684 42.357 83.4897C41.7319 84.211 40.8841 84.6161 40 84.6161C39.1159 84.6161 38.2681 84.211 37.643 83.4897C37.0179 82.7684 36.6667 81.7902 36.6667 80.7702V73.0783C36.6667 72.0583 37.0179 71.08 37.643 70.3588C38.2681 69.6375 39.1159 69.2323 40 69.2323C40.8841 69.2323 41.7319 69.6375 42.357 70.3588C42.9821 71.08 43.3333 72.0583 43.3333 73.0783Z" fill="#606060"/>
</svg>
