<svg width="32" height="30" viewBox="0 0 32 30" fill="none" xmlns="http://www.w3.org/2000/svg">
<path d="M8 5.76923V1.15385C8 0.847827 8.12041 0.554342 8.33474 0.337954C8.54906 0.121566 8.83975 0 9.14286 0C9.44596 0 9.73665 0.121566 9.95098 0.337954C10.1653 0.554342 10.2857 0.847827 10.2857 1.15385V5.76923C10.2857 6.07525 10.1653 6.36873 9.95098 6.58512C9.73665 6.80151 9.44596 6.92308 9.14286 6.92308C8.83975 6.92308 8.54906 6.80151 8.33474 6.58512C8.12041 6.36873 8 6.07525 8 5.76923ZM13.7143 6.92308C14.0174 6.92308 14.3081 6.80151 14.5224 6.58512C14.7367 6.36873 14.8571 6.07525 14.8571 5.76923V1.15385C14.8571 0.847827 14.7367 0.554342 14.5224 0.337954C14.3081 0.121566 14.0174 0 13.7143 0C13.4112 0 13.1205 0.121566 12.9062 0.337954C12.6918 0.554342 12.5714 0.847827 12.5714 1.15385V5.76923C12.5714 6.07525 12.6918 6.36873 12.9062 6.58512C13.1205 6.80151 13.4112 6.92308 13.7143 6.92308ZM18.2857 6.92308C18.5888 6.92308 18.8795 6.80151 19.0938 6.58512C19.3082 6.36873 19.4286 6.07525 19.4286 5.76923V1.15385C19.4286 0.847827 19.3082 0.554342 19.0938 0.337954C18.8795 0.121566 18.5888 0 18.2857 0C17.9826 0 17.6919 0.121566 17.4776 0.337954C17.2633 0.554342 17.1429 0.847827 17.1429 1.15385V5.76923C17.1429 6.07525 17.2633 6.36873 17.4776 6.58512C17.6919 6.80151 17.9826 6.92308 18.2857 6.92308ZM32 15V16.1538C31.9995 17.6215 31.4451 19.0337 30.4496 20.1032C29.454 21.1726 28.0923 21.8187 26.6414 21.9101C25.8619 24.1364 24.5346 26.1261 22.7843 27.6923H26.2857C26.5888 27.6923 26.8795 27.8139 27.0938 28.0303C27.3082 28.2466 27.4286 28.5401 27.4286 28.8462C27.4286 29.1522 27.3082 29.4457 27.0938 29.662C26.8795 29.8784 26.5888 30 26.2857 30H1.14286C0.839753 30 0.549062 29.8784 0.334735 29.662C0.120408 29.4457 0 29.1522 0 28.8462C0 28.5401 0.120408 28.2466 0.334735 28.0303C0.549062 27.8139 0.839753 27.6923 1.14286 27.6923H4.64857C3.19043 26.3917 2.02214 24.7936 1.22083 23.0035C0.419515 21.2134 0.00341551 19.2721 0 17.3077V10.3846C0 10.0786 0.120408 9.78511 0.334735 9.56872C0.549062 9.35233 0.839753 9.23077 1.14286 9.23077H26.2857C27.8012 9.23077 29.2547 9.8386 30.3263 10.9205C31.398 12.0025 32 13.4699 32 15ZM25.1429 11.5385H2.28571V17.3077C2.29012 19.4742 2.89653 21.5959 4.036 23.4317C5.17547 25.2675 6.80227 26.7436 8.73143 27.6923H18.6971C20.6263 26.7436 22.2531 25.2675 23.3926 23.4317C24.532 21.5959 25.1385 19.4742 25.1429 17.3077V11.5385ZM29.7143 15C29.7141 14.2844 29.4942 13.5864 29.0848 13.0021C28.6755 12.4179 28.0969 11.976 27.4286 11.7375V17.3077C27.4277 18.0323 27.3704 18.7557 27.2571 19.4712C27.9662 19.2596 28.5886 18.8224 29.0314 18.2245C29.4743 17.6267 29.7138 16.9004 29.7143 16.1538V15Z" fill="#EDEDED"/>
</svg>
