<svg width="382" height="384" viewBox="0 0 382 384" fill="none" xmlns="http://www.w3.org/2000/svg">
<g filter="url(#filter0_d_87_2)">
<g filter="url(#filter1_d_87_2)">
<path d="M251.718 83.9632H122.704C117.572 83.9632 112.649 85.9205 109.02 89.4045C105.391 92.8885 103.352 97.6139 103.352 102.541V189.238C103.352 194.165 105.391 198.89 109.02 202.374C112.649 205.858 117.572 207.816 122.704 207.816H180.76V220.201H161.408C159.697 220.201 158.057 220.853 156.847 222.015C155.637 223.176 154.958 224.751 154.958 226.394C154.958 228.036 155.637 229.611 156.847 230.772C158.057 231.934 159.697 232.586 161.408 232.586H213.014C214.725 232.586 216.365 231.934 217.575 230.772C218.785 229.611 219.464 228.036 219.464 226.394C219.464 224.751 218.785 223.176 217.575 222.015C216.365 220.853 214.725 220.201 213.014 220.201H193.662V207.816H251.718C256.85 207.816 261.773 205.858 265.402 202.374C269.031 198.89 271.07 194.165 271.07 189.238V102.541C271.07 97.6139 269.031 92.8885 265.402 89.4045C261.773 85.9205 256.85 83.9632 251.718 83.9632ZM122.704 96.3484H251.718C253.429 96.3484 255.069 97.0008 256.279 98.1622C257.489 99.3235 258.169 100.899 258.169 102.541V164.467H116.253V102.541C116.253 100.899 116.933 99.3235 118.143 98.1622C119.353 97.0008 120.993 96.3484 122.704 96.3484ZM251.718 195.43H122.704C120.993 195.43 119.353 194.778 118.143 193.617C116.933 192.455 116.253 190.88 116.253 189.238V176.853H258.169V189.238C258.169 190.88 257.489 192.455 256.279 193.617C255.069 194.778 253.429 195.43 251.718 195.43Z" fill="#FFBB00"/>
</g>
<g clip-path="url(#clip0_87_2)" filter="url(#filter2_d_87_2)">
<g filter="url(#filter3_d_87_2)">
<path d="M174.55 124.234L165.816 131.52L174.55 138.806C174.729 138.949 174.877 139.127 174.987 139.328C175.096 139.529 175.164 139.75 175.187 139.978C175.21 140.206 175.187 140.436 175.12 140.655C175.053 140.874 174.943 141.077 174.797 141.253C174.651 141.429 174.471 141.574 174.268 141.679C174.065 141.785 173.843 141.848 173.615 141.867C173.387 141.885 173.157 141.858 172.94 141.787C172.722 141.716 172.521 141.602 172.349 141.452L162.028 132.842C161.834 132.68 161.678 132.478 161.571 132.25C161.464 132.021 161.409 131.772 161.409 131.519C161.409 131.267 161.464 131.018 161.571 130.789C161.678 130.561 161.834 130.358 162.028 130.197L172.349 121.587C172.699 121.295 173.152 121.154 173.606 121.195C174.061 121.237 174.48 121.458 174.772 121.809C175.064 122.16 175.205 122.613 175.163 123.067C175.122 123.522 174.901 123.942 174.55 124.234ZM212.395 130.197L202.073 121.587C201.9 121.442 201.699 121.333 201.484 121.266C201.268 121.199 201.041 121.175 200.816 121.195C200.591 121.216 200.372 121.281 200.172 121.386C199.972 121.491 199.795 121.635 199.65 121.809C199.358 122.16 199.217 122.613 199.259 123.067C199.301 123.522 199.521 123.942 199.872 124.234L208.606 131.52L199.872 138.806C199.693 138.949 199.545 139.127 199.435 139.328C199.326 139.529 199.258 139.75 199.235 139.978C199.212 140.206 199.235 140.436 199.302 140.655C199.369 140.874 199.479 141.077 199.625 141.253C199.771 141.429 199.951 141.574 200.155 141.679C200.358 141.785 200.58 141.848 200.808 141.867C201.036 141.885 201.265 141.858 201.482 141.787C201.7 141.716 201.901 141.602 202.073 141.452L212.395 132.842C212.588 132.68 212.744 132.478 212.851 132.25C212.958 132.021 213.013 131.772 213.013 131.519C213.013 131.267 212.958 131.018 212.851 130.789C212.744 130.561 212.588 130.358 212.395 130.197ZM194.679 110.96C194.466 110.883 194.241 110.849 194.015 110.859C193.79 110.869 193.568 110.923 193.363 111.019C193.159 111.115 192.975 111.25 192.823 111.417C192.67 111.584 192.552 111.779 192.475 111.991L178.713 149.874C178.636 150.087 178.601 150.313 178.611 150.539C178.621 150.765 178.675 150.987 178.771 151.192C178.867 151.397 179.002 151.581 179.169 151.734C179.335 151.887 179.531 152.005 179.743 152.083C179.932 152.15 180.13 152.184 180.33 152.184C180.684 152.184 181.028 152.075 181.318 151.872C181.607 151.669 181.827 151.382 181.947 151.049L195.709 113.167C195.786 112.954 195.82 112.728 195.81 112.503C195.8 112.277 195.746 112.055 195.65 111.85C195.555 111.645 195.42 111.461 195.253 111.309C195.086 111.156 194.891 111.038 194.679 110.96Z" fill="#FFBB00"/>
</g>
</g>
<path d="M47.0275 89.5084C47.027 88.4777 46.7252 87.4679 46.1566 86.5935C45.5879 85.7191 44.775 85.0153 43.8104 84.5619C42.8457 84.1085 41.7679 83.9237 40.6993 84.0286C39.6307 84.1334 38.6141 84.5237 37.765 85.1551C36.916 85.7864 36.2685 86.6335 35.896 87.6002C35.5236 88.567 35.4411 89.6145 35.658 90.6239C35.8749 91.6333 36.3825 92.5642 37.123 93.3107C37.8636 94.0573 38.8076 94.5896 39.8476 94.8473V96.3973C39.8476 97.1281 39.545 97.829 39.0065 98.3457C38.4679 98.8625 37.7374 99.1528 36.9757 99.1528H24.0519C23.0429 99.1517 22.0517 99.4078 21.1799 99.8951V94.8473C22.5335 94.5119 23.7132 93.7144 24.4979 92.6042C25.2825 91.494 25.6182 90.1474 25.4421 88.8167C25.2659 87.486 24.59 86.2627 23.541 85.3759C22.492 84.4892 21.142 84 19.7439 84C18.3459 84 16.9959 84.4892 15.9469 85.3759C14.8979 86.2627 14.222 87.486 14.0458 88.8167C13.8696 90.1474 14.2053 91.494 14.99 92.6042C15.7746 93.7144 16.9543 94.5119 18.308 94.8473V106.214C16.9543 106.549 15.7746 107.347 14.99 108.457C14.2053 109.567 13.8696 110.914 14.0458 112.245C14.222 113.575 14.8979 114.799 15.9469 115.685C16.9959 116.572 18.3459 117.061 19.7439 117.061C21.142 117.061 22.492 116.572 23.541 115.685C24.59 114.799 25.2659 113.575 25.4421 112.245C25.6182 110.914 25.2825 109.567 24.4979 108.457C23.7132 107.347 22.5335 106.549 21.1799 106.214V104.664C21.1799 103.933 21.4825 103.232 22.0211 102.715C22.5597 102.199 23.2902 101.908 24.0519 101.908H36.9757C38.4991 101.908 39.96 101.328 41.0372 100.294C42.1144 99.2607 42.7196 97.8589 42.7196 96.3973V94.8473C43.9521 94.5401 45.0436 93.8493 45.8232 92.8832C46.6028 91.9171 47.0263 90.7302 47.0275 89.5084ZM16.872 89.5084C16.872 88.9634 17.0404 88.4306 17.356 87.9774C17.6716 87.5243 18.1201 87.1711 18.6449 86.9625C19.1697 86.754 19.7471 86.6994 20.3042 86.8057C20.8613 86.9121 21.3731 87.1745 21.7747 87.5599C22.1764 87.9452 22.4499 88.4362 22.5607 88.9708C22.6715 89.5053 22.6146 90.0593 22.3973 90.5629C22.1799 91.0664 21.8118 91.4967 21.3395 91.7995C20.8672 92.1023 20.3119 92.2639 19.7439 92.2639C18.9822 92.2639 18.2517 91.9736 17.7131 91.4568C17.1746 90.9401 16.872 90.2392 16.872 89.5084ZM22.6159 111.553C22.6159 112.098 22.4474 112.631 22.1319 113.084C21.8163 113.537 21.3678 113.89 20.843 114.099C20.3182 114.307 19.7407 114.362 19.1836 114.255C18.6265 114.149 18.1148 113.887 17.7131 113.501C17.3115 113.116 17.038 112.625 16.9272 112.09C16.8163 111.556 16.8732 111.002 17.0906 110.498C17.308 109.995 17.6761 109.564 18.1484 109.262C18.6206 108.959 19.1759 108.797 19.7439 108.797C20.5056 108.797 21.2361 109.088 21.7747 109.604C22.3133 110.121 22.6159 110.822 22.6159 111.553ZM41.2836 92.2639C40.7156 92.2639 40.1603 92.1023 39.688 91.7995C39.2157 91.4967 38.8476 91.0664 38.6303 90.5629C38.4129 90.0593 38.356 89.5053 38.4668 88.9708C38.5777 88.4362 38.8512 87.9452 39.2528 87.5599C39.6545 87.1745 40.1662 86.9121 40.7233 86.8057C41.2804 86.6994 41.8579 86.754 42.3827 86.9625C42.9074 87.1711 43.356 87.5243 43.6716 87.9774C43.9871 88.4306 44.1556 88.9634 44.1556 89.5084C44.1556 90.2392 43.853 90.9401 43.3144 91.4568C42.7758 91.9736 42.0453 92.2639 41.2836 92.2639Z" fill="#FFBB00"/>
<path d="M287.052 31.8076H279.975C279.662 31.8076 279.362 31.932 279.141 32.1534C278.92 32.3749 278.796 32.6752 278.796 32.9883V40.0729C278.796 40.386 278.92 40.6864 279.141 40.9078C279.362 41.1292 279.662 41.2536 279.975 41.2536H287.052C287.365 41.2536 287.665 41.1292 287.886 40.9078C288.108 40.6864 288.232 40.386 288.232 40.0729V32.9883C288.232 32.6752 288.108 32.3749 287.886 32.1534C287.665 31.932 287.365 31.8076 287.052 31.8076ZM285.873 38.8921H281.155V34.1691H285.873V38.8921ZM298.848 38.8921H296.489V34.1691H298.848C299.161 34.1691 299.461 34.0447 299.682 33.8233C299.903 33.6018 300.028 33.3015 300.028 32.9883C300.028 32.6752 299.903 32.3749 299.682 32.1534C299.461 31.932 299.161 31.8076 298.848 31.8076H296.489V25.9038C296.489 25.2775 296.24 24.6768 295.798 24.2339C295.355 23.7911 294.755 23.5423 294.13 23.5423H288.232V21.1808C288.232 20.8676 288.108 20.5673 287.886 20.3458C287.665 20.1244 287.365 20 287.052 20C286.74 20 286.44 20.1244 286.218 20.3458C285.997 20.5673 285.873 20.8676 285.873 21.1808V23.5423H281.155V21.1808C281.155 20.8676 281.03 20.5673 280.809 20.3458C280.588 20.1244 280.288 20 279.975 20C279.662 20 279.362 20.1244 279.141 20.3458C278.92 20.5673 278.796 20.8676 278.796 21.1808V23.5423H272.898C272.272 23.5423 271.672 23.7911 271.23 24.2339C270.787 24.6768 270.539 25.2775 270.539 25.9038V31.8076H268.18C267.867 31.8076 267.567 31.932 267.345 32.1534C267.124 32.3749 267 32.6752 267 32.9883C267 33.3015 267.124 33.6018 267.345 33.8233C267.567 34.0447 267.867 34.1691 268.18 34.1691H270.539V38.8921H268.18C267.867 38.8921 267.567 39.0165 267.345 39.238C267.124 39.4594 267 39.7597 267 40.0729C267 40.386 267.124 40.6864 267.345 40.9078C267.567 41.1292 267.867 41.2536 268.18 41.2536H270.539V47.1574C270.539 47.7838 270.787 48.3844 271.23 48.8273C271.672 49.2701 272.272 49.519 272.898 49.519H278.796V51.8805C278.796 52.1936 278.92 52.494 279.141 52.7154C279.362 52.9368 279.662 53.0612 279.975 53.0612C280.288 53.0612 280.588 52.9368 280.809 52.7154C281.03 52.494 281.155 52.1936 281.155 51.8805V49.519H285.873V51.8805C285.873 52.1936 285.997 52.494 286.218 52.7154C286.44 52.9368 286.74 53.0612 287.052 53.0612C287.365 53.0612 287.665 52.9368 287.886 52.7154C288.108 52.494 288.232 52.1936 288.232 51.8805V49.519H294.13C294.755 49.519 295.355 49.2701 295.798 48.8273C296.24 48.3844 296.489 47.7838 296.489 47.1574V41.2536H298.848C299.161 41.2536 299.461 41.1292 299.682 40.9078C299.903 40.6864 300.028 40.386 300.028 40.0729C300.028 39.7597 299.903 39.4594 299.682 39.238C299.461 39.0165 299.161 38.8921 298.848 38.8921ZM294.13 47.1574H272.898V25.9038H294.13V40.0537C294.13 40.0537 294.13 40.067 294.13 40.0729C294.13 40.0788 294.13 40.0862 294.13 40.0921V47.1574Z" fill="#FFBB00"/>
<path d="M91.568 269.22V253.572H95.096V266.244H102.056V269.22H91.568ZM108.743 269.508C107.383 269.508 106.399 269.076 105.791 268.212C105.183 267.348 104.879 266.164 104.879 264.66V257.316H108.407V264.204C108.407 265.004 108.527 265.588 108.767 265.956C109.023 266.324 109.479 266.508 110.135 266.508C110.583 266.508 110.983 266.412 111.335 266.22C111.687 266.028 112.063 265.668 112.463 265.14V257.316H115.991V269.22H113.111L112.847 267.516H112.751C112.223 268.108 111.639 268.588 110.999 268.956C110.359 269.324 109.607 269.508 108.743 269.508ZM126.013 269.508C124.765 269.508 123.637 269.268 122.629 268.788C121.637 268.292 120.845 267.58 120.253 266.652C119.677 265.708 119.389 264.58 119.389 263.268C119.389 261.956 119.709 260.836 120.349 259.908C120.989 258.964 121.829 258.252 122.869 257.772C123.925 257.276 125.061 257.028 126.277 257.028C127.221 257.028 128.077 257.18 128.845 257.484C129.613 257.772 130.245 258.156 130.741 258.636L129.109 260.82C128.645 260.5 128.197 260.268 127.765 260.124C127.349 259.964 126.917 259.884 126.469 259.884C125.797 259.884 125.197 260.02 124.669 260.292C124.141 260.564 123.733 260.956 123.445 261.468C123.157 261.98 123.013 262.58 123.013 263.268C123.013 263.956 123.149 264.556 123.421 265.068C123.709 265.58 124.101 265.972 124.597 266.244C125.109 266.516 125.693 266.652 126.349 266.652C126.973 266.652 127.541 266.54 128.053 266.316C128.581 266.092 129.061 265.828 129.493 265.524L130.909 267.756C130.205 268.348 129.413 268.788 128.533 269.076C127.669 269.364 126.829 269.508 126.013 269.508ZM137.548 269.508C136.748 269.508 136.052 269.348 135.46 269.028C134.884 268.708 134.436 268.276 134.116 267.732C133.796 267.188 133.636 266.58 133.636 265.908C133.636 264.58 134.236 263.564 135.436 262.86C136.652 262.156 138.668 261.724 141.484 261.564C141.436 261.196 141.316 260.884 141.124 260.628C140.932 260.372 140.652 260.18 140.284 260.052C139.932 259.908 139.484 259.836 138.94 259.836C138.556 259.836 138.172 259.884 137.788 259.98C137.404 260.06 137.004 260.188 136.588 260.364C136.188 260.524 135.764 260.716 135.316 260.94L134.068 258.636C134.612 258.316 135.18 258.036 135.772 257.796C136.38 257.556 137.004 257.372 137.644 257.244C138.3 257.1 138.964 257.028 139.636 257.028C140.756 257.028 141.716 257.228 142.516 257.628C143.316 258.012 143.932 258.604 144.364 259.404C144.796 260.188 145.012 261.188 145.012 262.404V269.22H142.132L141.868 267.876H141.772C141.18 268.324 140.524 268.708 139.804 269.028C139.084 269.348 138.332 269.508 137.548 269.508ZM138.676 266.772C139.204 266.772 139.7 266.668 140.164 266.46C140.628 266.236 141.068 265.964 141.484 265.644V263.676C140.316 263.74 139.404 263.86 138.748 264.036C138.108 264.212 137.66 264.436 137.404 264.708C137.148 264.98 137.02 265.292 137.02 265.644C137.02 265.884 137.084 266.092 137.212 266.268C137.356 266.444 137.548 266.572 137.788 266.652C138.044 266.732 138.34 266.772 138.676 266.772ZM153.667 269.508C152.611 269.508 151.563 269.332 150.523 268.98C149.483 268.612 148.587 268.18 147.835 267.684L149.347 265.476C150.067 265.94 150.827 266.292 151.627 266.532C152.443 266.772 153.283 266.892 154.147 266.892C154.803 266.892 155.283 266.796 155.587 266.604C155.891 266.396 156.043 266.156 156.043 265.884C156.043 265.708 155.995 265.564 155.899 265.452C155.819 265.324 155.667 265.212 155.443 265.116C155.235 265.004 154.939 264.9 154.555 264.804C154.187 264.708 153.707 264.596 153.115 264.468C151.499 264.116 150.339 263.636 149.635 263.028C148.931 262.42 148.579 261.66 148.579 260.748C148.579 259.628 149.067 258.732 150.043 258.06C151.019 257.372 152.355 257.028 154.051 257.028C155.123 257.028 156.091 257.204 156.955 257.556C157.835 257.892 158.587 258.26 159.211 258.66L157.627 260.772C157.035 260.404 156.403 260.124 155.731 259.932C155.059 259.74 154.395 259.644 153.739 259.644C153.371 259.644 153.067 259.684 152.827 259.764C152.587 259.828 152.403 259.94 152.275 260.1C152.147 260.244 152.083 260.404 152.083 260.58C152.083 260.9 152.291 261.14 152.707 261.3C153.123 261.444 153.835 261.628 154.843 261.852C156.059 262.124 157.011 262.436 157.699 262.788C158.387 263.14 158.859 263.548 159.115 264.012C159.387 264.46 159.523 265.012 159.523 265.668C159.523 266.388 159.299 267.036 158.851 267.612C158.419 268.188 157.763 268.652 156.883 269.004C156.019 269.34 154.947 269.508 153.667 269.508ZM177.552 269.22V253.572H187.92V256.548H181.104V259.692H186.888V262.644H181.104V266.244H188.16V269.22H177.552ZM190.574 269.22V257.316H193.238L193.478 258.78H193.574C193.798 258.3 194.11 257.892 194.51 257.556C194.91 257.204 195.454 257.028 196.142 257.028C196.654 257.028 197.094 257.196 197.462 257.532C197.83 257.852 198.078 258.332 198.206 258.972C198.43 258.428 198.75 257.972 199.166 257.604C199.598 257.22 200.158 257.028 200.846 257.028C201.694 257.028 202.35 257.372 202.814 258.06C203.278 258.748 203.51 259.684 203.51 260.868V269.22H200.15V261.108C200.15 260.388 199.934 260.028 199.502 260.028C199.278 260.028 199.078 260.124 198.902 260.316C198.742 260.492 198.582 260.78 198.422 261.18V269.22H195.662V261.108C195.662 260.74 195.606 260.468 195.494 260.292C195.382 260.116 195.214 260.028 194.99 260.028C194.766 260.028 194.574 260.124 194.414 260.316C194.254 260.492 194.094 260.78 193.934 261.18V269.22H190.574ZM209.501 269.508C208.701 269.508 208.005 269.348 207.413 269.028C206.837 268.708 206.389 268.276 206.069 267.732C205.749 267.188 205.589 266.58 205.589 265.908C205.589 264.58 206.189 263.564 207.389 262.86C208.605 262.156 210.621 261.724 213.437 261.564C213.389 261.196 213.269 260.884 213.077 260.628C212.885 260.372 212.605 260.18 212.237 260.052C211.885 259.908 211.437 259.836 210.893 259.836C210.509 259.836 210.125 259.884 209.741 259.98C209.357 260.06 208.957 260.188 208.541 260.364C208.141 260.524 207.717 260.716 207.269 260.94L206.021 258.636C206.565 258.316 207.133 258.036 207.725 257.796C208.333 257.556 208.957 257.372 209.597 257.244C210.253 257.1 210.917 257.028 211.589 257.028C212.709 257.028 213.669 257.228 214.469 257.628C215.269 258.012 215.885 258.604 216.317 259.404C216.749 260.188 216.965 261.188 216.965 262.404V269.22H214.085L213.821 267.876H213.725C213.133 268.324 212.477 268.708 211.757 269.028C211.037 269.348 210.285 269.508 209.501 269.508ZM210.629 266.772C211.157 266.772 211.653 266.668 212.117 266.46C212.581 266.236 213.021 265.964 213.437 265.644V263.676C212.269 263.74 211.357 263.86 210.701 264.036C210.061 264.212 209.613 264.436 209.357 264.708C209.101 264.98 208.973 265.292 208.973 265.644C208.973 265.884 209.037 266.092 209.165 266.268C209.309 266.444 209.501 266.572 209.741 266.652C209.997 266.732 210.293 266.772 210.629 266.772ZM220.244 269.22V257.316H223.124L223.388 258.9H223.484C223.996 258.388 224.58 257.948 225.236 257.58C225.908 257.212 226.692 257.028 227.588 257.028C228.932 257.028 229.916 257.46 230.54 258.324C231.164 259.188 231.476 260.372 231.476 261.876V269.22H227.948V262.332C227.948 261.532 227.812 260.948 227.54 260.58C227.284 260.212 226.836 260.028 226.196 260.028C225.716 260.028 225.292 260.14 224.924 260.364C224.572 260.572 224.188 260.876 223.772 261.276V269.22H220.244ZM238.258 269.508C236.898 269.508 235.914 269.076 235.306 268.212C234.698 267.348 234.394 266.164 234.394 264.66V257.316H237.922V264.204C237.922 265.004 238.042 265.588 238.282 265.956C238.538 266.324 238.994 266.508 239.65 266.508C240.098 266.508 240.498 266.412 240.85 266.22C241.202 266.028 241.578 265.668 241.978 265.14V257.316H245.506V269.22H242.626L242.362 267.516H242.266C241.738 268.108 241.154 268.588 240.514 268.956C239.874 269.324 239.122 269.508 238.258 269.508ZM255.217 269.508C253.985 269.508 252.865 269.268 251.857 268.788C250.865 268.292 250.073 267.58 249.481 266.652C248.905 265.708 248.617 264.58 248.617 263.268C248.617 261.972 248.913 260.86 249.505 259.932C250.097 258.988 250.865 258.268 251.809 257.772C252.753 257.276 253.753 257.028 254.809 257.028C256.041 257.028 257.073 257.284 257.905 257.796C258.737 258.292 259.361 258.972 259.777 259.836C260.209 260.684 260.425 261.652 260.425 262.74C260.425 263.06 260.401 263.372 260.353 263.676C260.321 263.964 260.289 264.18 260.257 264.324H251.233V261.948H257.881L257.329 262.62C257.329 261.66 257.121 260.94 256.705 260.46C256.305 259.964 255.713 259.716 254.929 259.716C254.353 259.716 253.849 259.844 253.417 260.1C252.985 260.356 252.649 260.748 252.409 261.276C252.169 261.804 252.049 262.468 252.049 263.268C252.049 264.084 252.193 264.756 252.481 265.284C252.769 265.796 253.185 266.18 253.729 266.436C254.273 266.692 254.929 266.82 255.697 266.82C256.241 266.82 256.753 266.748 257.233 266.604C257.729 266.46 258.241 266.252 258.769 265.98L259.945 268.116C259.257 268.548 258.497 268.892 257.665 269.148C256.833 269.388 256.017 269.508 255.217 269.508ZM271.168 269.508C269.68 269.508 268.552 269.06 267.784 268.164C267.016 267.268 266.632 266.068 266.632 264.564V255.18H262.912V252.42H270.16V264.708C270.16 265.444 270.36 265.956 270.76 266.244C271.16 266.516 271.6 266.652 272.08 266.652C272.368 266.652 272.656 266.62 272.944 266.556C273.248 266.492 273.584 266.396 273.952 266.268L274.72 268.86C274.112 269.052 273.552 269.204 273.04 269.316C272.544 269.444 271.92 269.508 271.168 269.508Z" fill="#FFBB00"/>
<path d="M204.532 288.204H168.752C168.022 288.204 167.322 288.494 166.806 289.011C166.29 289.528 166 290.229 166 290.959V310.245C166 310.976 166.29 311.676 166.806 312.193C167.322 312.71 168.022 313 168.752 313H204.532C205.262 313 205.962 312.71 206.478 312.193C206.994 311.676 207.284 310.976 207.284 310.245V290.959C207.284 290.229 206.994 289.528 206.478 289.011C205.962 288.494 205.262 288.204 204.532 288.204ZM204.532 310.245H168.752V290.959H204.532V310.245ZM186.642 296.469V299.225H188.018C188.383 299.225 188.733 299.37 188.991 299.628C189.25 299.886 189.394 300.237 189.394 300.602C189.394 300.967 189.25 301.318 188.991 301.576C188.733 301.834 188.383 301.98 188.018 301.98H186.642V304.735H189.394C189.759 304.735 190.11 304.88 190.368 305.138C190.626 305.397 190.771 305.747 190.771 306.112C190.771 306.478 190.626 306.828 190.368 307.086C190.11 307.345 189.759 307.49 189.394 307.49H185.266C184.901 307.49 184.551 307.345 184.293 307.086C184.035 306.828 183.89 306.478 183.89 306.112V295.092C183.89 294.727 184.035 294.376 184.293 294.118C184.551 293.859 184.901 293.714 185.266 293.714H189.394C189.759 293.714 190.11 293.859 190.368 294.118C190.626 294.376 190.771 294.727 190.771 295.092C190.771 295.457 190.626 295.808 190.368 296.066C190.11 296.324 189.759 296.469 189.394 296.469H186.642ZM201.728 295.466L198.632 306.486C198.551 306.775 198.377 307.029 198.138 307.211C197.899 307.392 197.607 307.49 197.307 307.49C197.007 307.49 196.716 307.392 196.477 307.211C196.238 307.029 196.064 306.775 195.983 306.486L192.886 295.466C192.789 295.114 192.835 294.739 193.013 294.422C193.192 294.104 193.489 293.87 193.839 293.771C194.19 293.673 194.565 293.717 194.883 293.894C195.201 294.072 195.435 294.368 195.536 294.718L197.307 301.024L199.079 294.718C199.128 294.543 199.21 294.38 199.322 294.237C199.433 294.094 199.572 293.975 199.73 293.886C199.888 293.797 200.062 293.74 200.242 293.719C200.422 293.697 200.604 293.711 200.779 293.76C200.953 293.81 201.116 293.893 201.258 294.005C201.4 294.118 201.519 294.257 201.607 294.416C201.695 294.574 201.752 294.748 201.772 294.928C201.793 295.109 201.778 295.291 201.728 295.466ZM175.633 293.714H174.257C173.892 293.714 173.542 293.859 173.284 294.118C173.026 294.376 172.881 294.727 172.881 295.092V306.112C172.881 306.478 173.026 306.828 173.284 307.086C173.542 307.345 173.892 307.49 174.257 307.49H175.633C177.093 307.49 178.493 306.909 179.525 305.876C180.558 304.843 181.138 303.441 181.138 301.98V299.225C181.138 297.763 180.558 296.362 179.525 295.328C178.493 294.295 177.093 293.714 175.633 293.714ZM178.385 301.98C178.385 302.71 178.095 303.411 177.579 303.928C177.063 304.444 176.363 304.735 175.633 304.735V296.469C176.363 296.469 177.063 296.76 177.579 297.276C178.095 297.793 178.385 298.494 178.385 299.225V301.98Z" fill="#FFBB00"/>
<path d="M349.708 272.31C349.8 272.402 349.874 272.513 349.925 272.634C349.975 272.756 350.001 272.886 350.001 273.018C350.001 273.149 349.975 273.28 349.925 273.401C349.874 273.523 349.8 273.633 349.708 273.726L346.708 276.729C346.52 276.917 346.265 277.023 346 277.023C345.735 277.023 345.48 276.917 345.292 276.729C345.105 276.542 344.999 276.287 344.999 276.021C344.999 275.755 345.105 275.501 345.292 275.313L347.586 273.018L345.292 270.723C345.105 270.535 344.999 270.28 344.999 270.014C344.999 269.749 345.105 269.494 345.292 269.306C345.48 269.118 345.735 269.013 346 269.013C346.265 269.013 346.52 269.118 346.708 269.306L349.708 272.31ZM340.708 269.306C340.615 269.213 340.504 269.139 340.383 269.089C340.262 269.038 340.131 269.013 340 269.013C339.869 269.013 339.738 269.038 339.617 269.089C339.496 269.139 339.385 269.213 339.292 269.306L336.292 272.31C336.2 272.402 336.126 272.513 336.075 272.634C336.025 272.756 335.999 272.886 335.999 273.018C335.999 273.149 336.025 273.28 336.075 273.401C336.126 273.523 336.2 273.633 336.292 273.726L339.292 276.729C339.385 276.822 339.496 276.896 339.617 276.947C339.738 276.997 339.869 277.023 340 277.023C340.131 277.023 340.262 276.997 340.383 276.947C340.504 276.896 340.615 276.822 340.708 276.729C340.8 276.636 340.874 276.526 340.924 276.404C340.975 276.283 341.001 276.153 341.001 276.021C341.001 275.89 340.975 275.759 340.924 275.638C340.874 275.516 340.8 275.406 340.708 275.313L338.414 273.018L340.708 270.723C340.8 270.63 340.874 270.519 340.925 270.398C340.975 270.276 341.001 270.146 341.001 270.014C341.001 269.883 340.975 269.753 340.925 269.631C340.874 269.51 340.8 269.399 340.708 269.306ZM354 265.009V281.027C354 281.558 353.789 282.067 353.414 282.442C353.039 282.818 352.53 283.029 352 283.029H334C333.47 283.029 332.961 282.818 332.586 282.442C332.211 282.067 332 281.558 332 281.027V259.002C332 258.471 332.211 257.962 332.586 257.586C332.961 257.211 333.47 257 334 257H346C346.131 257 346.261 257.026 346.383 257.076C346.504 257.126 346.615 257.2 346.708 257.293L353.708 264.301C353.8 264.394 353.874 264.504 353.924 264.626C353.974 264.747 354 264.877 354 265.009ZM347 264.008H350.586L347 260.418V264.008ZM352 281.027V266.01H346C345.735 266.01 345.48 265.905 345.293 265.717C345.105 265.529 345 265.274 345 265.009V259.002H334V281.027H352Z" fill="#FFBB00"/>
<path d="M76 28.0056V24.0011C76 23.7356 76.1054 23.481 76.2929 23.2932C76.4804 23.1055 76.7348 23 77 23C77.2652 23 77.5196 23.1055 77.7071 23.2932C77.8946 23.481 78 23.7356 78 24.0011V28.0056C78 28.2711 77.8946 28.5257 77.7071 28.7135C77.5196 28.9012 77.2652 29.0067 77 29.0067C76.7348 29.0067 76.4804 28.9012 76.2929 28.7135C76.1054 28.5257 76 28.2711 76 28.0056ZM81 29.0067C81.2652 29.0067 81.5196 28.9012 81.7071 28.7135C81.8946 28.5257 82 28.2711 82 28.0056V24.0011C82 23.7356 81.8946 23.481 81.7071 23.2932C81.5196 23.1055 81.2652 23 81 23C80.7348 23 80.4804 23.1055 80.2929 23.2932C80.1054 23.481 80 23.7356 80 24.0011V28.0056C80 28.2711 80.1054 28.5257 80.2929 28.7135C80.4804 28.9012 80.7348 29.0067 81 29.0067ZM85 29.0067C85.2652 29.0067 85.5196 28.9012 85.7071 28.7135C85.8946 28.5257 86 28.2711 86 28.0056V24.0011C86 23.7356 85.8946 23.481 85.7071 23.2932C85.5196 23.1055 85.2652 23 85 23C84.7348 23 84.4804 23.1055 84.2929 23.2932C84.1054 23.481 84 23.7356 84 24.0011V28.0056C84 28.2711 84.1054 28.5257 84.2929 28.7135C84.4804 28.9012 84.7348 29.0067 85 29.0067ZM97 36.0145V37.0156C96.9996 38.2889 96.5145 39.5143 95.6434 40.4421C94.7723 41.37 93.5807 41.9306 92.3113 42.0099C91.6291 43.9415 90.4678 45.6678 88.9363 47.0267H92C92.2652 47.0267 92.5196 47.1322 92.7071 47.3199C92.8946 47.5077 93 47.7623 93 48.0278C93 48.2933 92.8946 48.548 92.7071 48.7357C92.5196 48.9235 92.2652 49.0289 92 49.0289H70C69.7348 49.0289 69.4804 48.9235 69.2929 48.7357C69.1054 48.548 69 48.2933 69 48.0278C69 47.7623 69.1054 47.5077 69.2929 47.3199C69.4804 47.1322 69.7348 47.0267 70 47.0267H73.0675C71.7916 45.8982 70.7694 44.5117 70.0682 42.9585C69.3671 41.4054 69.003 39.7211 69 38.0167V32.01C69 31.7445 69.1054 31.4899 69.2929 31.3021C69.4804 31.1144 69.7348 31.0089 70 31.0089H92C93.3261 31.0089 94.5979 31.5363 95.5355 32.475C96.4732 33.4137 97 34.6869 97 36.0145ZM91 33.0111H71V38.0167C71.0039 39.8964 71.5345 41.7373 72.5315 43.3301C73.5285 44.9228 74.952 46.2036 76.64 47.0267H85.36C87.048 46.2036 88.4715 44.9228 89.4685 43.3301C90.4655 41.7373 90.9961 39.8964 91 38.0167V33.0111ZM95 36.0145C94.9998 35.3935 94.8074 34.788 94.4492 34.281C94.0911 33.7741 93.5848 33.3908 93 33.1838V38.0167C92.9992 38.6454 92.9491 39.273 92.85 39.8938C93.4705 39.7103 94.015 39.3309 94.4025 38.8122C94.79 38.2935 94.9996 37.6633 95 37.0156V36.0145Z" fill="#FFBB00"/>
<path d="M373.039 181.46C373.344 180.474 373.442 179.435 373.327 178.41C373.211 177.384 372.884 176.393 372.366 175.5C372.278 175.348 372.152 175.222 372 175.134C371.848 175.046 371.676 175 371.5 175C370.335 174.998 369.186 175.268 368.144 175.788C367.102 176.309 366.197 177.067 365.5 178H362.5C361.803 177.067 360.898 176.309 359.856 175.788C358.814 175.268 357.665 174.998 356.5 175C356.324 175 356.152 175.046 356 175.134C355.848 175.222 355.722 175.348 355.634 175.5C355.116 176.393 354.789 177.384 354.673 178.41C354.558 179.435 354.656 180.474 354.961 181.46C354.343 182.538 354.012 183.757 354 185V186C354.002 187.692 354.616 189.326 355.729 190.601C356.842 191.875 358.379 192.704 360.055 192.934C359.371 193.809 358.999 194.889 359 196V197H356C355.204 197 354.441 196.684 353.879 196.121C353.316 195.559 353 194.796 353 194C353 193.343 352.871 192.693 352.619 192.087C352.368 191.48 352 190.929 351.536 190.464C351.071 190 350.52 189.632 349.913 189.381C349.307 189.129 348.657 189 348 189C347.735 189 347.48 189.105 347.293 189.293C347.105 189.48 347 189.735 347 190C347 190.265 347.105 190.52 347.293 190.707C347.48 190.895 347.735 191 348 191C348.796 191 349.559 191.316 350.121 191.879C350.684 192.441 351 193.204 351 194C351 195.326 351.527 196.598 352.464 197.536C353.402 198.473 354.674 199 356 199H359V201C359 201.265 359.105 201.52 359.293 201.707C359.48 201.895 359.735 202 360 202C360.265 202 360.52 201.895 360.707 201.707C360.895 201.52 361 201.265 361 201V196C361 195.204 361.316 194.441 361.879 193.879C362.441 193.316 363.204 193 364 193C364.796 193 365.559 193.316 366.121 193.879C366.684 194.441 367 195.204 367 196V201C367 201.265 367.105 201.52 367.293 201.707C367.48 201.895 367.735 202 368 202C368.265 202 368.52 201.895 368.707 201.707C368.895 201.52 369 201.265 369 201V196C369.001 194.889 368.629 193.809 367.945 192.934C369.621 192.704 371.158 191.875 372.271 190.601C373.384 189.326 373.998 187.692 374 186V185C373.988 183.757 373.657 182.538 373.039 181.46ZM372 186C372 187.326 371.473 188.598 370.536 189.536C369.598 190.473 368.326 191 367 191H361C359.674 191 358.402 190.473 357.464 189.536C356.527 188.598 356 187.326 356 186V185C356.012 184 356.312 183.025 356.863 182.19C356.965 182.055 357.032 181.895 357.056 181.727C357.08 181.559 357.061 181.387 357 181.229C356.74 180.557 356.614 179.84 356.631 179.12C356.648 178.4 356.807 177.69 357.099 177.031C357.917 177.119 358.705 177.39 359.405 177.824C360.104 178.259 360.697 178.844 361.139 179.539C361.229 179.68 361.353 179.796 361.499 179.876C361.646 179.957 361.81 179.999 361.977 180H366.021C366.189 180 366.354 179.958 366.502 179.877C366.649 179.797 366.773 179.68 366.864 179.539C367.306 178.844 367.898 178.258 368.598 177.824C369.297 177.39 370.085 177.119 370.904 177.031C371.195 177.69 371.354 178.4 371.37 179.12C371.387 179.841 371.261 180.557 371 181.229C370.94 181.386 370.919 181.556 370.941 181.723C370.963 181.89 371.026 182.049 371.125 182.185C371.681 183.02 371.985 183.997 372 185V186Z" fill="#FFBB00"/>
<path d="M199.627 375.781C199.42 375.947 199.155 376.023 198.892 375.994C198.628 375.965 198.387 375.832 198.222 375.625C198.05 375.409 194.002 370.233 194.002 360C194.002 358.143 193.264 356.363 191.951 355.05C190.639 353.737 188.858 353 187.002 353C185.145 353 183.365 353.737 182.052 355.05C180.739 356.363 180.002 358.143 180.002 360C180.002 370.233 175.955 375.409 175.783 375.625C175.701 375.728 175.599 375.813 175.484 375.877C175.369 375.94 175.243 375.98 175.112 375.995C174.981 376.009 174.849 375.998 174.723 375.962C174.596 375.925 174.479 375.864 174.376 375.782C174.273 375.7 174.188 375.598 174.124 375.483C174.061 375.368 174.021 375.242 174.006 375.111C173.992 374.98 174.003 374.848 174.039 374.722C174.076 374.596 174.137 374.478 174.219 374.375C174.238 374.35 175.18 373.137 176.11 370.782C176.973 368.6 178.002 364.955 178.002 360C178.002 357.613 178.95 355.324 180.638 353.636C182.325 351.948 184.615 351 187.002 351C189.389 351 191.678 351.948 193.366 353.636C195.053 355.324 196.002 357.613 196.002 360C196.002 364.955 197.03 368.6 197.893 370.785C198.828 373.152 199.775 374.365 199.785 374.378C199.95 374.585 200.026 374.849 199.996 375.112C199.967 375.375 199.834 375.616 199.627 375.781ZM183.502 360C183.205 360 182.915 360.088 182.668 360.253C182.422 360.418 182.229 360.652 182.116 360.926C182.002 361.2 181.973 361.502 182.03 361.793C182.088 362.084 182.231 362.351 182.441 362.561C182.651 362.77 182.918 362.913 183.209 362.971C183.5 363.029 183.802 362.999 184.076 362.886C184.35 362.772 184.584 362.58 184.749 362.333C184.914 362.087 185.002 361.797 185.002 361.5C185.002 361.102 184.844 360.721 184.562 360.439C184.281 360.158 183.899 360 183.502 360ZM192.002 361.5C192.002 361.203 191.914 360.913 191.749 360.667C191.584 360.42 191.35 360.228 191.076 360.114C190.802 360.001 190.5 359.971 190.209 360.029C189.918 360.087 189.651 360.23 189.441 360.439C189.231 360.649 189.088 360.916 189.03 361.207C188.973 361.498 189.002 361.8 189.116 362.074C189.229 362.348 189.422 362.582 189.668 362.747C189.915 362.912 190.205 363 190.502 363C190.899 363 191.281 362.842 191.562 362.561C191.844 362.279 192.002 361.898 192.002 361.5ZM183.449 365.105C183.213 364.993 182.942 364.978 182.694 365.063C182.447 365.148 182.242 365.327 182.125 365.561C182.008 365.795 181.988 366.066 182.068 366.315C182.149 366.564 182.324 366.772 182.555 366.894L186.555 368.894C186.694 368.964 186.847 369 187.002 369C187.157 369 187.311 368.964 187.449 368.894L191.449 366.894C191.686 366.775 191.867 366.567 191.95 366.315C192.034 366.064 192.015 365.789 191.896 365.552C191.777 365.315 191.569 365.134 191.318 365.051C191.066 364.967 190.791 364.986 190.554 365.105L187.002 366.881L183.449 365.105ZM187.002 371C185.798 371.01 184.619 371.34 183.586 371.958C182.554 372.576 181.704 373.458 181.127 374.514C181.063 374.629 181.022 374.755 181.007 374.886C180.992 375.016 181.003 375.148 181.039 375.275C181.075 375.401 181.136 375.519 181.218 375.622C181.299 375.725 181.4 375.811 181.515 375.875C181.63 375.939 181.757 375.979 181.887 375.994C182.018 376.009 182.15 375.999 182.276 375.963C182.403 375.926 182.521 375.866 182.624 375.784C182.727 375.702 182.813 375.601 182.877 375.486C183.274 374.737 183.868 374.11 184.595 373.673C185.321 373.235 186.153 373.004 187.002 373.004C187.85 373.004 188.682 373.235 189.409 373.673C190.135 374.11 190.729 374.737 191.127 375.486C191.19 375.601 191.276 375.702 191.379 375.784C191.482 375.866 191.6 375.926 191.727 375.963C191.853 375.999 191.985 376.009 192.116 375.994C192.247 375.979 192.373 375.939 192.488 375.875C192.603 375.811 192.704 375.725 192.786 375.622C192.867 375.519 192.928 375.401 192.964 375.275C193 375.148 193.011 375.016 192.996 374.886C192.981 374.755 192.94 374.629 192.877 374.514C192.299 373.458 191.45 372.576 190.417 371.958C189.384 371.34 188.205 371.01 187.002 371Z" fill="#FFBB00"/>
<path d="M351 101H341C340.735 101 340.48 101.105 340.293 101.293C340.105 101.48 340 101.735 340 102V109.181C340 109.416 340.082 109.643 340.232 109.823C340.382 110.003 340.591 110.124 340.821 110.166L350.821 111.984C350.88 111.995 350.94 112 351 112C351.265 112 351.52 111.895 351.707 111.707C351.895 111.519 352 111.265 352 111V102C352 101.735 351.895 101.48 351.707 101.293C351.52 101.105 351.265 101 351 101ZM350 109.801L342 108.347V103H350V109.801ZM337 101H329C328.735 101 328.48 101.105 328.293 101.293C328.105 101.48 328 101.735 328 102V107C328 107.234 328.082 107.461 328.232 107.641C328.382 107.82 328.591 107.942 328.821 107.984L336.821 109.439C336.88 109.449 336.94 109.455 337 109.455C337.265 109.455 337.52 109.35 337.707 109.162C337.895 108.974 338 108.72 338 108.455V102C338 101.735 337.895 101.48 337.707 101.293C337.52 101.105 337.265 101 337 101ZM336 107.256L330 106.165V103H336V107.256ZM351.641 88.2324C351.529 88.1385 351.397 88.0704 351.255 88.0331C351.114 87.9957 350.965 87.9899 350.821 88.0162L340.821 89.8349C340.591 89.8768 340.382 89.9982 340.232 90.1779C340.082 90.3577 340 90.5845 340 90.8187V97.9999C340 98.2651 340.105 98.5195 340.293 98.707C340.48 98.8946 340.735 98.9999 341 98.9999H351C351.265 98.9999 351.52 98.8946 351.707 98.707C351.895 98.5195 352 98.2651 352 97.9999V88.9999C352 88.8535 351.968 88.7089 351.906 88.5763C351.844 88.4437 351.754 88.3263 351.641 88.2324ZM350 96.9999H342V91.6524L350 90.1987V96.9999ZM337.641 90.7774C337.529 90.6835 337.397 90.6154 337.255 90.5781C337.114 90.5407 336.965 90.5349 336.821 90.5612L328.821 92.0162C328.591 92.058 328.382 92.1794 328.232 92.3592C328.082 92.539 328 92.7657 328 92.9999V97.9999C328 98.2651 328.105 98.5195 328.293 98.707C328.48 98.8946 328.735 98.9999 329 98.9999H337C337.265 98.9999 337.52 98.8946 337.707 98.707C337.895 98.5195 338 98.2651 338 97.9999V91.5449C338 91.3985 337.968 91.2539 337.906 91.1213C337.844 90.9887 337.754 90.8713 337.641 90.7774ZM336 96.9999H330V93.8349L336 92.7499V96.9999Z" fill="#FFBB00"/>
<path d="M193 10H199C199.53 10 200.039 9.78929 200.414 9.41421C200.789 9.03914 201 8.53043 201 8V2C201 1.46957 200.789 0.960859 200.414 0.585786C200.039 0.210714 199.53 0 199 0H193C192.47 0 191.961 0.210714 191.586 0.585786C191.211 0.960859 191 1.46957 191 2V4H190C188.939 4 187.922 4.42143 187.172 5.17157C186.421 5.92172 186 6.93913 186 8V11H182V10C182 9.46957 181.789 8.96086 181.414 8.58579C181.039 8.21071 180.53 8 180 8H176C175.47 8 174.961 8.21071 174.586 8.58579C174.211 8.96086 174 9.46957 174 10V14C174 14.5304 174.211 15.0391 174.586 15.4142C174.961 15.7893 175.47 16 176 16H180C180.53 16 181.039 15.7893 181.414 15.4142C181.789 15.0391 182 14.5304 182 14V13H186V16C186 17.0609 186.421 18.0783 187.172 18.8284C187.922 19.5786 188.939 20 190 20H191V22C191 22.5304 191.211 23.0391 191.586 23.4142C191.961 23.7893 192.47 24 193 24H199C199.53 24 200.039 23.7893 200.414 23.4142C200.789 23.0391 201 22.5304 201 22V16C201 15.4696 200.789 14.9609 200.414 14.5858C200.039 14.2107 199.53 14 199 14H193C192.47 14 191.961 14.2107 191.586 14.5858C191.211 14.9609 191 15.4696 191 16V18H190C189.47 18 188.961 17.7893 188.586 17.4142C188.211 17.0391 188 16.5304 188 16V8C188 7.46957 188.211 6.96086 188.586 6.58579C188.961 6.21071 189.47 6 190 6H191V8C191 8.53043 191.211 9.03914 191.586 9.41421C191.961 9.78929 192.47 10 193 10ZM180 14H176V10H180V14ZM193 16H199V22H193V16ZM193 2H199V8H193V2Z" fill="#FFBB00"/>
<path d="M24 264.001C24 264.266 23.8946 264.52 23.7071 264.708C23.5196 264.895 23.2652 265.001 23 265.001H15C14.7348 265.001 14.4804 264.895 14.2929 264.708C14.1054 264.52 14 264.266 14 264.001C14 263.735 14.1054 263.481 14.2929 263.293C14.4804 263.106 14.7348 263.001 15 263.001H23C23.2652 263.001 23.5196 263.106 23.7071 263.293C23.8946 263.481 24 263.735 24 264.001ZM23 277.001H20V274.001C20 273.735 19.8946 273.481 19.7071 273.293C19.5196 273.106 19.2652 273.001 19 273.001C18.7348 273.001 18.4804 273.106 18.2929 273.293C18.1054 273.481 18 273.735 18 274.001V277.001H15C14.7348 277.001 14.4804 277.106 14.2929 277.293C14.1054 277.481 14 277.735 14 278.001C14 278.266 14.1054 278.52 14.2929 278.708C14.4804 278.895 14.7348 279.001 15 279.001H18V282.001C18 282.266 18.1054 282.52 18.2929 282.708C18.4804 282.895 18.7348 283.001 19 283.001C19.2652 283.001 19.5196 282.895 19.7071 282.708C19.8946 282.52 20 282.266 20 282.001V279.001H23C23.2652 279.001 23.5196 278.895 23.7071 278.708C23.8946 278.52 24 278.266 24 278.001C24 277.735 23.8946 277.481 23.7071 277.293C23.5196 277.106 23.2652 277.001 23 277.001ZM29 277.001H37C37.2652 277.001 37.5196 276.895 37.7071 276.708C37.8946 276.52 38 276.266 38 276.001C38 275.735 37.8946 275.481 37.7071 275.293C37.5196 275.106 37.2652 275.001 37 275.001H29C28.7348 275.001 28.4804 275.106 28.2929 275.293C28.1054 275.481 28 275.735 28 276.001C28 276.266 28.1054 276.52 28.2929 276.708C28.4804 276.895 28.7348 277.001 29 277.001ZM37 279.001H29C28.7348 279.001 28.4804 279.106 28.2929 279.293C28.1054 279.481 28 279.735 28 280.001C28 280.266 28.1054 280.52 28.2929 280.708C28.4804 280.895 28.7348 281.001 29 281.001H37C37.2652 281.001 37.5196 280.895 37.7071 280.708C37.8946 280.52 38 280.266 38 280.001C38 279.735 37.8946 279.481 37.7071 279.293C37.5196 279.106 37.2652 279.001 37 279.001ZM29.2925 267.708C29.3854 267.801 29.4957 267.875 29.6171 267.925C29.7385 267.975 29.8686 268.001 30 268.001C30.1314 268.001 30.2615 267.975 30.3829 267.925C30.5043 267.875 30.6146 267.801 30.7075 267.708L33 265.414L35.2925 267.708C35.3854 267.801 35.4957 267.875 35.6171 267.925C35.7385 267.975 35.8686 268.001 36 268.001C36.1314 268.001 36.2615 267.975 36.3829 267.925C36.5043 267.875 36.6146 267.801 36.7075 267.708C36.8004 267.615 36.8741 267.505 36.9244 267.383C36.9747 267.262 37.0006 267.132 37.0006 267.001C37.0006 266.869 36.9747 266.739 36.9244 266.618C36.8741 266.496 36.8004 266.386 36.7075 266.293L34.4137 264.001L36.7075 261.708C36.8951 261.52 37.0006 261.266 37.0006 261.001C37.0006 260.735 36.8951 260.481 36.7075 260.293C36.5199 260.105 36.2654 260 36 260C35.7346 260 35.4801 260.105 35.2925 260.293L33 262.587L30.7075 260.293C30.5199 260.105 30.2654 260 30 260C29.7346 260 29.4801 260.105 29.2925 260.293C29.1049 260.481 28.9994 260.735 28.9994 261.001C28.9994 261.266 29.1049 261.52 29.2925 261.708L31.5863 264.001L29.2925 266.293C29.1995 266.386 29.1258 266.496 29.0754 266.618C29.0251 266.739 28.9992 266.869 28.9992 267.001C28.9992 267.132 29.0251 267.262 29.0754 267.383C29.1258 267.505 29.1995 267.615 29.2925 267.708Z" fill="#FFBB00"/>
<path d="M285 322C278.271 322 273 325.075 273 329V341C273 344.925 278.271 348 285 348C291.729 348 297 344.925 297 341V329C297 325.075 291.729 322 285 322ZM295 335C295 336.202 294.015 337.429 292.299 338.365C290.366 339.419 287.774 340 285 340C282.226 340 279.634 339.419 277.701 338.365C275.985 337.429 275 336.202 275 335V332.92C277.132 334.795 280.779 336 285 336C289.221 336 292.868 334.79 295 332.92V335ZM277.701 325.635C279.634 324.581 282.226 324 285 324C287.774 324 290.366 324.581 292.299 325.635C294.015 326.571 295 327.798 295 329C295 330.202 294.015 331.429 292.299 332.365C290.366 333.419 287.774 334 285 334C282.226 334 279.634 333.419 277.701 332.365C275.985 331.429 275 330.202 275 329C275 327.798 275.985 326.571 277.701 325.635ZM292.299 344.365C290.366 345.419 287.774 346 285 346C282.226 346 279.634 345.419 277.701 344.365C275.985 343.429 275 342.202 275 341V338.92C277.132 340.795 280.779 342 285 342C289.221 342 292.868 340.79 295 338.92V341C295 342.202 294.015 343.429 292.299 344.365Z" fill="#FFBB00"/>
<path d="M98.997 335.001C98.9971 336.385 98.5866 337.739 97.8174 338.89C97.0483 340.041 95.955 340.938 94.6758 341.468C93.3967 341.998 91.9892 342.137 90.6312 341.866C89.2733 341.596 88.026 340.93 87.047 339.951L87.0057 339.907L79.512 331.444C78.8104 330.751 77.9194 330.281 76.9511 330.092C75.9828 329.904 74.9805 330.007 74.0703 330.387C73.1601 330.767 72.3827 331.408 71.8359 332.229C71.2891 333.05 70.9973 334.014 70.9973 335.001C70.9973 335.987 71.2891 336.951 71.8359 337.772C72.3827 338.593 73.1601 339.234 74.0703 339.614C74.9805 339.994 75.9828 340.097 76.9511 339.909C77.9194 339.721 78.8104 339.25 79.512 338.557L80.577 337.354C80.6641 337.256 80.7697 337.175 80.8879 337.118C81.006 337.06 81.1343 337.026 81.2656 337.018C81.3968 337.01 81.5283 337.028 81.6526 337.071C81.7769 337.113 81.8916 337.18 81.9901 337.267C82.0886 337.354 82.169 337.46 82.2267 337.578C82.2843 337.696 82.3182 337.825 82.3262 337.956C82.3343 338.087 82.3164 338.219 82.2737 338.343C82.2309 338.467 82.1641 338.582 82.077 338.681L80.9907 339.907L80.9495 339.951C79.9705 340.929 78.7232 341.596 77.3654 341.866C76.0075 342.136 74.6001 341.997 73.3211 341.468C72.042 340.938 70.9488 340.041 70.1797 338.889C69.4105 337.738 69 336.385 69 335.001C69 333.616 69.4105 332.263 70.1797 331.112C70.9488 329.96 72.042 329.063 73.3211 328.533C74.6001 328.004 76.0075 327.865 77.3654 328.135C78.7232 328.405 79.9705 329.072 80.9495 330.051L80.9907 330.094L88.4845 338.557C89.1861 339.25 90.0771 339.721 91.0454 339.909C92.0137 340.097 93.016 339.994 93.9262 339.614C94.8364 339.234 95.6138 338.593 96.1606 337.772C96.7074 336.951 96.9992 335.987 96.9992 335.001C96.9992 334.014 96.7074 333.05 96.1606 332.229C95.6138 331.408 94.8364 330.767 93.9262 330.387C93.016 330.007 92.0137 329.904 91.0454 330.092C90.0771 330.281 89.1861 330.751 88.4845 331.444L87.4195 332.647C87.2436 332.846 86.9959 332.967 86.7309 332.983C86.4659 332.999 86.2053 332.91 86.0064 332.734C85.8075 332.558 85.6866 332.31 85.6703 332.045C85.654 331.78 85.7436 331.519 85.9195 331.321L87.0057 330.094L87.047 330.051C88.026 329.071 89.2733 328.405 90.6312 328.135C91.9892 327.864 93.3967 328.003 94.6758 328.533C95.955 329.063 97.0483 329.96 97.8174 331.111C98.5866 332.262 98.9971 333.616 98.997 335.001Z" fill="#FFBB00"/>
<path d="M15 174H3C2.20435 174 1.44129 174.316 0.87868 174.879C0.316071 175.441 0 176.204 0 177V199C0 199.796 0.316071 200.559 0.87868 201.121C1.44129 201.684 2.20435 202 3 202H15C15.7956 202 16.5587 201.684 17.1213 201.121C17.6839 200.559 18 199.796 18 199V177C18 176.204 17.6839 175.441 17.1213 174.879C16.5587 174.316 15.7956 174 15 174ZM2 180H16V196H2V180ZM3 176H15C15.2652 176 15.5196 176.105 15.7071 176.293C15.8946 176.48 16 176.735 16 177V178H2V177C2 176.735 2.10536 176.48 2.29289 176.293C2.48043 176.105 2.73478 176 3 176ZM15 200H3C2.73478 200 2.48043 199.895 2.29289 199.707C2.10536 199.52 2 199.265 2 199V198H16V199C16 199.265 15.8946 199.52 15.7071 199.707C15.5196 199.895 15.2652 200 15 200Z" fill="#FFBB00"/>
</g>
<defs>
<filter id="filter0_d_87_2" x="0" y="0" width="382" height="384.001" filterUnits="userSpaceOnUse" color-interpolation-filters="sRGB">
<feFlood flood-opacity="0" result="BackgroundImageFix"/>
<feColorMatrix in="SourceAlpha" type="matrix" values="0 0 0 0 0 0 0 0 0 0 0 0 0 0 0 0 0 0 127 0" result="hardAlpha"/>
<feOffset dx="4" dy="4"/>
<feGaussianBlur stdDeviation="2"/>
<feComposite in2="hardAlpha" operator="out"/>
<feColorMatrix type="matrix" values="0 0 0 0 0 0 0 0 0 0 0 0 0 0 0 0 0 0 0.25 0"/>
<feBlend mode="normal" in2="BackgroundImageFix" result="effect1_dropShadow_87_2"/>
<feBlend mode="normal" in="SourceGraphic" in2="effect1_dropShadow_87_2" result="shape"/>
</filter>
<filter id="filter1_d_87_2" x="103.352" y="83.9632" width="175.718" height="156.623" filterUnits="userSpaceOnUse" color-interpolation-filters="sRGB">
<feFlood flood-opacity="0" result="BackgroundImageFix"/>
<feColorMatrix in="SourceAlpha" type="matrix" values="0 0 0 0 0 0 0 0 0 0 0 0 0 0 0 0 0 0 127 0" result="hardAlpha"/>
<feOffset dx="4" dy="4"/>
<feGaussianBlur stdDeviation="2"/>
<feComposite in2="hardAlpha" operator="out"/>
<feColorMatrix type="matrix" values="0 0 0 0 0.183333 0 0 0 0 0.183333 0 0 0 0 0.183333 0 0 0 0.75 0"/>
<feBlend mode="normal" in2="BackgroundImageFix" result="effect1_dropShadow_87_2"/>
<feBlend mode="normal" in="SourceGraphic" in2="effect1_dropShadow_87_2" result="shape"/>
</filter>
<filter id="filter2_d_87_2" x="155.688" y="103.969" width="63.0459" height="63.1021" filterUnits="userSpaceOnUse" color-interpolation-filters="sRGB">
<feFlood flood-opacity="0" result="BackgroundImageFix"/>
<feColorMatrix in="SourceAlpha" type="matrix" values="0 0 0 0 0 0 0 0 0 0 0 0 0 0 0 0 0 0 127 0" result="hardAlpha"/>
<feOffset dy="4"/>
<feGaussianBlur stdDeviation="2"/>
<feComposite in2="hardAlpha" operator="out"/>
<feColorMatrix type="matrix" values="0 0 0 0 0 0 0 0 0 0 0 0 0 0 0 0 0 0 0.25 0"/>
<feBlend mode="normal" in2="BackgroundImageFix" result="effect1_dropShadow_87_2"/>
<feBlend mode="normal" in="SourceGraphic" in2="effect1_dropShadow_87_2" result="shape"/>
</filter>
<filter id="filter3_d_87_2" x="161.409" y="110.857" width="59.6045" height="49.3266" filterUnits="userSpaceOnUse" color-interpolation-filters="sRGB">
<feFlood flood-opacity="0" result="BackgroundImageFix"/>
<feColorMatrix in="SourceAlpha" type="matrix" values="0 0 0 0 0 0 0 0 0 0 0 0 0 0 0 0 0 0 127 0" result="hardAlpha"/>
<feOffset dx="4" dy="4"/>
<feGaussianBlur stdDeviation="2"/>
<feComposite in2="hardAlpha" operator="out"/>
<feColorMatrix type="matrix" values="0 0 0 0 0.183333 0 0 0 0 0.183333 0 0 0 0 0.183333 0 0 0 0.45 0"/>
<feBlend mode="normal" in2="BackgroundImageFix" result="effect1_dropShadow_87_2"/>
<feBlend mode="normal" in="SourceGraphic" in2="effect1_dropShadow_87_2" result="shape"/>
</filter>
<clipPath id="clip0_87_2">
<rect width="55.0459" height="55.1021" fill="white" transform="translate(159.688 103.969)"/>
</clipPath>
</defs>
</svg>
